<svg fill="#000" xmlns="http://www.w3.org/2000/svg" viewBox="0 0 37 24"><path fill-rule="evenodd" clip-rule="evenodd" d="M12.47.6H25.214l9.61 15.739V3.688c0-2.202-.267-2.432-1.502-2.76V.6h3.67v.329c-1.234.328-1.5.558-1.5 2.76V23.6h-1.402L21.976 3.261c-.2-.328-.367-.591-.534-.821v18.071c0 2.202.267 2.432 1.502 2.76v.329H12.471v-.329c1.2-.328 1.501-.558 1.501-2.76V12.33H6.331v8.181c0 2.202.267 2.432 1.501 2.76v.329H.992v-.329c1.201-.328 1.502-.558 1.502-2.76V3.69c0-2.202-.3-2.432-1.502-2.76V.6h6.84v.329c-1.234.328-1.501.558-1.501 2.76v7.984h7.641V3.689c0-2.202-.3-2.432-1.501-2.76V.6Zm6.822 22.666c1.186-.326 1.483-.564 1.483-2.755V1.684c-.458-.395-.843-.523-1.302-.676a23.046 23.046 0 0 1-.202-.069c-1.2.323-1.462.572-1.462 2.75V20.51c0 2.19.265 2.43 1.483 2.755Z" /></svg>
